inDegrees=no
num_controls=7
num_derivatives=13
num_iterations=135
num_multipliers=7
num_parameters=0
num_slacks=7
num_states=26
objective=0.448387
objective_accelerations=0.048241
objective_balance=0.007301
objective_effort=0.035816
objective_height=0.352090
objective_ligament=0.004939
solver_duration=1934.470016
status=Solve_Succeeded
success=true
DataType=double
version=3
OpenSimVersion=4.5
endheader
time	/jointset/ground_pelvis/pelvis_tilt/value	/jointset/ground_pelvis/pelvis_tx/value	/jointset/ground_pelvis/pelvis_ty/value	/jointset/hip_l/hip_flexion_l/value	/jointset/hip_l/hip_adduction_l/value	/jointset/hip_l/hip_rotation_l/value	/jointset/back/lumbar_extension/value	/jointset/patellofemoral_l/patellar_flexion_l/value	/jointset/knee_l/knee_flexion_l/value	/jointset/knee_l/knee_adduction_l/value	/jointset/knee_l/knee_rotation_l/value	/jointset/ankle_l/ankle_angle_l/value	/jointset/subtalar_l/subtalar_angle_l/value	/jointset/ground_pelvis/pelvis_tilt/speed	/jointset/ground_pelvis/pelvis_tx/speed	/jointset/ground_pelvis/pelvis_ty/speed	/jointset/hip_l/hip_flexion_l/speed	/jointset/hip_l/hip_adduction_l/speed	/jointset/hip_l/hip_rotation_l/speed	/jointset/back/lumbar_extension/speed	/jointset/patellofemoral_l/patellar_flexion_l/speed	/jointset/knee_l/knee_flexion_l/speed	/jointset/knee_l/knee_adduction_l/speed	/jointset/knee_l/knee_rotation_l/speed	/jointset/ankle_l/ankle_angle_l/speed	/jointset/subtalar_l/subtalar_angle_l/speed	/forceset/tau_hip_flexion_l	/forceset/tau_hip_adduction_l	/forceset/tau_hip_rotation_l	/forceset/tau_knee_flexion_l	/forceset/tau_ankle_angle_l	/forceset/tau_subtalar_angle_l	/forceset/tau_lumbar_extension	lambda_cid13_p0	lambda_cid13_p1	lambda_cid13_p2	lambda_cid13_p3	lambda_cid13_p4	lambda_cid13_p5	lambda_cid14_p0	/jointset/ground_pelvis/pelvis_tilt/accel	/jointset/ground_pelvis/pelvis_tx/accel	/jointset/ground_pelvis/pelvis_ty/accel	/jointset/hip_l/hip_flexion_l/accel	/jointset/hip_l/hip_adduction_l/accel	/jointset/hip_l/hip_rotation_l/accel	/jointset/back/lumbar_extension/accel	/jointset/patellofemoral_l/patellar_flexion_l/accel	/jointset/knee_l/knee_flexion_l/accel	/jointset/knee_l/knee_adduction_l/accel	/jointset/knee_l/knee_rotation_l/accel	/jointset/ankle_l/ankle_angle_l/accel	/jointset/subtalar_l/subtalar_angle_l/accel	gamma_cid13_p0	gamma_cid13_p1	gamma_cid13_p2	gamma_cid13_p3	gamma_cid13_p4	gamma_cid13_p5	gamma_cid14_p0
1.5	-0.4429775294561637	-0.0717758618160961	0.7645246375002475	1.256952588503801	-0.3097342679329096	-0.04642721367204853	-0.34539646606076	0.687604802293177	0.6876048022931528	-0.173362529180243	0.1744035712280971	0.03979032208165473	-0.04849371393253253	0.7156235768077613	0.2561169907057966	0.4805767869503725	-2.302245810203424	0.03175835520929912	-0.6075398223131065	0.5625682281389143	-1.739628977991045	-1.739628977990867	0.005198481069233565	-0.0004945299309386906	-0.2467853536135023	0.003625351262298651	-0.2491982172397193	0.01820436338301876	-0.02111823876281788	-0.2005671722733222	0.1359144547039444	0.04433770631136953	0.2251104574504873	4.6938027071888	-22.84278789043899	6.397722542161577	-4.915857854936616	-611.4946242473172	-60.20963071074856	-28.38288997818808	0.631858064087327	0.6654490479540771	-0.2838291102498732	-1.541553122287706	0.5761100307289049	-0.3117257602928276	1.749951288343999	-1.099342475085679	-1.099342475085776	0.02695323238150748	-0.01668415719568136	-0.1376387369419283	0.5561954900418127	2.536617724913588e-07	7.432825287419984e-07	-1.255812336360628e-06	-6.564503151055501e-08	3.28422382409395e-07	-9.647375497222843e-09	2.83371620279324e-07
1.51	-0.4357900429592245	-0.06918159661705488	0.7693153040861624	1.233855184722455	-0.3093888168137869	-0.05251799571956105	-0.3396845429539587	0.6701558205896451	0.6701558205896103	-0.1733109290193204	0.1743991686270444	0.0373158153642195	-0.04843065973112356	0.7217782122903924	0.2627102438774102	0.4774624539691796	-2.316927378207884	0.0373374703913519	-0.6105118099233898	0.5797528119603717	-1.749927289473847	-1.749927289473642	0.005095302568262989	-0.0004038111675344659	-0.2480625298689908	0.008992834285141253	-0.2414521037170168	0.01752840156861066	-0.02097734867060853	-0.1991286562973242	0.1359961258032188	0.043699056359635	0.2191068196924113	4.947734194374585	-22.71324969691681	6.495139278443189	-4.918754317489879	-607.2135162552588	-60.48944201431439	-29.37980720113773	0.5929565901286857	0.6524156202584573	-0.3393024657672678	-1.38530296181053	0.5495675645833735	-0.2740171614645255	1.693174739877464	-0.9591039098857995	-0.959103909881575	-0.03271351789220622	0.01941444867304879	-0.1147247140494117	0.5279988982392884	1.384967498447252e-07	9.969986638901286e-07	-7.099441374878453e-07	5.342302086587788e-08	2.580707688986075e-07	6.368171674034997e-08	2.264035712294306e-07
1.52	-0.4285438720475042	-0.06652216845259885	0.774072013927523	1.210620196396607	-0.3089874234823163	-0.05863531402319175	-0.3338026814467767	0.652611050086281	0.6526110500862408	-0.1732611126687112	0.1743951661247447	0.03483014335539009	-0.04831373586151944	0.7273604597641348	0.26914958378876	0.4737854380394588	-2.329762719103762	0.04294679767900447	-0.6128470735364134	0.596555908215066	-1.758786737956982	-1.758786737956749	0.004841719005055938	-0.0004145101815473978	-0.2490184118923629	0.014399284901336	-0.2337059901943146	0.01685243975419416	-0.02083645857834253	-0.1976901403213353	0.136077796902491	0.04306040640789578	0.2131031819343379	5.194070587508693	-22.58480442571114	6.595497782021368	-4.910184849670181	-603.055680671847	-60.82489724271024	-30.35894358173159	0.5173804623095921	0.6346663959013266	-0.3963656999554445	-1.172307700571409	0.5821524518488559	-0.1843809608409273	1.673653774991367	-0.8115698751522262	-0.8115698751522016	-0.003127780065785728	-0.03696771267910506	-0.07337989051862553	0.5639890087122433	7.493982714524911e-08	1.162189767383642e-06	-4.174321380576351e-07	1.205161587614968e-07	2.258354608975859e-07	1.134451917308399e-07	1.979170679595288e-07
1.53	-0.4212447770789581	-0.06379920908704892	0.7787891737782099	1.187266186348954	-0.3085298168676084	-0.06477324288461557	-0.3277549621998367	0.6349849834692826	0.6349849834692504	-0.1732143308272816	0.1743908726894138	0.03233649858107024	-0.04814258221397586	0.7323539979265172	0.2754061942034434	0.4695550668779848	-2.340710180845151	0.04857988400334613	-0.6146541405902405	0.612901975701106	-1.766173905853973	-1.766173905853857	0.004511283713555699	-0.0004478669116572071	-0.249657969812195	0.01983851965462603	-0.2257723785125293	0.0159521013875549	-0.02073201167204708	-0.1962835108006292	0.136162421654126	0.04234371898955386	0.2068892857556737	5.441707528763511	-22.42363105712322	6.691707376551433	-4.842087449059611	-598.8268792632733	-61.13211928143442	-31.31605649540562	0.4746748441702337	0.6157718447185682	-0.450044902729747	-1.006580476463637	0.5545782664214179	-0.1659775250715522	1.602188414611724	-0.6644284372113224	-0.6644284372289224	-0.04830422752897802	0.01306230114125469	-0.05134350851019875	0.5347964695708393	6.621651063962729e-08	1.233323024744128e-06	-3.941111005351548e-07	1.323859500212516e-07	2.340987275006902e-07	1.381701983963044e-07	1.996922070808677e-07
1.54	-0.4138988798585939	-0.06101476092125883	0.7834612955015848	1.163812578670781	-0.3080157410809157	-0.07092666400606258	-0.3215463612421959	0.617292617535269	0.6172926175352387	-0.1731709139035429	0.1743861620776378	0.02983803827439347	-0.04791685506671273	0.7367209101276067	0.2814473438367869	0.4647778125770671	-2.349682245208181	0.05424063207546967	-0.6159455255407851	0.6287322503552053	-1.772046601360515	-1.772046601360516	0.004168735468583376	-0.0004979454690386661	-0.2499815183638142	0.02531398484525454	-0.2178387668307365	0.01505176302091899	-0.02062756476580779	-0.1948768812799144	0.1362470464057614	0.04162703157121363	0.200675389577016	5.681238951928497	-22.2632189474378	6.790529082894642	-4.757861870037562	-594.7268962051852	-61.49529337769904	-32.24692523792153	0.3920552700509572	0.5915742396333805	-0.5057423278442088	-0.7772282248996035	0.5876848014052348	-0.08124454018446577	1.570495208603183	-0.5086753970621849	-0.5086753970622514	-0.00555037076020249	-0.04031207813342244	-0.01017801687600002	0.5712350961799387	5.718195883425229e-08	1.306787516274813e-06	-3.735257063699427e-07	1.436611725265269e-07	2.432800669332995e-07	1.630587592296703e-07	2.017212002083173e-07
1.55	-0.406512476329747	-0.05817103771128815	0.7880829566186828	1.140279180107597	-0.3074450297474403	-0.07709059425765361	-0.3151823025197728	0.599549196603508	0.5995491966034839	-0.1731310369767358	0.1743810566933951	0.02733793819538225	-0.04763629446545567	0.7404468442485226	0.2872543267842005	0.4594666401648887	-2.356650575067934	0.05989883263924774	-0.6167497739227408	0.6439714987766876	-1.776371344016718	-1.776371344016588	0.003798757227300924	-0.0005272016913937722	-0.2499825309169349	0.03079781526513055	-0.2096611607327043	0.01394184592012733	-0.02059089793626977	-0.1937260662629131	0.1367569320705705	0.04068766296573591	0.1942376590350957	6.051448137619519	-22.03112568047134	6.880376893429801	-4.744879724177808	-590.6219185230893	-61.75752490543756	-33.14722089147661	0.3459316676538824	0.5688466433185595	-0.5569184580251545	-0.6045857052877183	0.5543274290869599	-0.06618574428835952	1.484440355986518	-0.3544786201183858	-0.3544786200986554	-0.05367732520633813	0.01529345368372875	0.01334664503759627	0.536725477027714	4.778880983568341e-08	1.382937995001597e-06	-3.560922491163655e-07	1.542513484233801e-07	2.535191859303387e-07	1.881357629086615e-07	2.04042677299329e-07
1.56	-0.399092199622782	-0.05527052740763872	0.7926488832596348	1.116686508178061	-0.306817848459281	-0.08325980114448424	-0.3086690911737217	0.58177050726114	0.5817705072611262	-0.1730950509872196	0.1743755639165226	0.02483950989475351	-0.04730094186757264	0.7434955457511191	0.2928047625725339	0.4536309173479088	-2.361536918478666	0.06553462301194127	-0.6170008525881862	0.6585627750808036	-1.779100283481678	-1.779100283481416	0.003390548010254942	-0.0005754239949369781	-0.2496471626873472	0.03627238417045771	-0.2014835546346731	0.01283192881933015	-0.02055423110672065	-0.1925752512459138	0.137266817735378	0.0397482943602528	0.187799928493176	6.413178746561904	-21.79952507694295	6.972561814733589	-4.711370044983452	-586.6484676917938	-62.07640636586049	-34.01270501092421	0.2566087463870665	0.5402648078173609	-0.6106524088045132	-0.3608309350952295	0.5832027631883213	0.02938940311760882	1.440900785129938	-0.1895147588133196	-0.1895147588133148	-0.01319656591290847	-0.04410529437103138	0.0570981396656863	0.5693827932701696	3.83147318151226e-08	1.446541789610294e-06	-3.409215897056961e-07	1.631516562533211e-07	2.623104650069198e-07	2.116644502564148e-07	2.05164672150814e-07
1.57	-0.3916448421701558	-0.0523158867569332	0.7971538813806666	1.093055464790275	-0.306134495887974	-0.08942887476145321	-0.302013436793546	0.5639725871340239	0.5639725871340215	-0.1730633498671454	0.1743695970608471	0.02234608973001926	-0.04691096174720307	0.7458576387783928	0.2980705487805771	0.4472854934935378	-2.364307635721229	0.07112511037717245	-0.616719140239983	0.6724391548380559	-1.780205922801275	-1.780205922801019	0.00293974170351374	-0.0006222405606056954	-0.2489826812923059	0.04171534333428947	-0.1932416348830962	0.01159769805120733	-0.02056317576065395	-0.1914552283402978	0.1378209418191806	0.03864315454336878	0.1812629301139939	6.779380415293044	-21.49771779427599	7.054701579164622	-4.631385583855996	-582.7339818963757	-62.28548573412483	-34.8391072065739	0.208272354350571	0.511847478716264	-0.6589147161701604	-0.1805609442825905	0.5451954118237644	0.04198990432194315	1.341664653554883	-0.02945656156092904	-0.02945656156184422	-0.06226921426072109	0.01452285685550549	0.07926497237638049	0.5303066868479281	2.873949251707185e-08	1.494462229071384e-06	-3.285794275986615e-07	1.699396289996218e-07	2.692919441829283e-07	2.33257742190121e-07	2.047873142028907e-07
1.58	-0.384177411232566	-0.04931016585386363	0.8015929397946716	1.069407640464974	-0.3053955937052866	-0.09559224570421108	-0.2952228869992912	0.5461719370051092	0.5461719370051136	-0.1730364061203888	0.1743630605784083	0.0198609427458264	-0.04646684119341359	0.7475102427437882	0.3030208130453464	0.4404429759425229	-2.364893105981625	0.07664454528773253	-0.6158603177457673	0.6855418578965917	-1.779646283841992	-1.779646283841742	0.002439073348533049	-0.0006893493454610208	-0.247992526579143	0.04710047085445115	-0.1849997151315155	0.01036346728308498	-0.02057212041465617	-0.1903352054346694	0.1383750659029847	0.03753801472648585	0.1747259317348142	7.136554117549423	-21.19604964121767	7.138828168424359	-4.527034280000334	-578.9566824109997	-62.55058579726222	-35.62234171364403	0.1147109340113596	0.4771604191625715	-0.7100711481333178	0.07621846133788557	0.5689922722541066	0.1448114323200997	1.286165445386638	0.1435408969627764	0.1435408969627747	-0.02316897556080784	-0.04816373820834093	0.1222328032900535	0.5578164645361554	2.044641681573597e-08	1.533143702344277e-06	-3.197198864982676e-07	1.740109002046419e-07	2.773992756173145e-07	2.531367509491093e-07	2.039580933858275e-07
